<svg aria-hidden="true" style="position: absolute; width: 0; height: 0; overflow: hidden;" version="1.1" xmlns="http://www.w3.org/2000/svg" xmlns:xlink="http://www.w3.org/1999/xlink">
<defs>
<symbol id="icon-location-outline" viewBox="0 0 24 24">
<path d="M12 5c1.609 0 3.12 0.614 4.254 1.73 1.126 1.107 1.746 2.579 1.746 4.14s-0.62 3.030-1.745 4.139l-4.255 4.184-4.254-4.186c-1.125-1.107-1.745-2.576-1.745-4.139s0.62-3.032 1.745-4.141c1.135-1.113 2.647-1.727 4.254-1.727M12 3c-2.047 0-4.096 0.768-5.657 2.305-3.124 3.074-3.124 8.057 0 11.131l5.657 5.563 5.657-5.565c3.124-3.072 3.124-8.056 0-11.129-1.561-1.537-3.609-2.305-5.657-2.305z"></path>
<path d="M12 8.499c0.668 0 1.296 0.26 1.768 0.731 0.976 0.976 0.976 2.562 0 3.537-0.473 0.472-1.1 0.731-1.768 0.731s-1.295-0.26-1.768-0.731c-0.976-0.976-0.976-2.562 0-3.537 0.473-0.471 1.101-0.731 1.768-0.731M12 7.499c-0.896 0-1.792 0.342-2.475 1.024-1.367 1.367-1.367 3.584 0 4.951 0.684 0.684 1.578 1.024 2.475 1.024s1.792-0.342 2.475-1.024c1.366-1.367 1.366-3.584 0-4.951-0.683-0.683-1.579-1.024-2.475-1.024z"></path>
</symbol>
<symbol id="icon-image-outline" viewBox="0 0 24 24">
<path d="M8.5 7.999c0.827 0 1.5 0.673 1.5 1.5s-0.673 1.5-1.5 1.5-1.5-0.673-1.5-1.5 0.673-1.5 1.5-1.5M8.5 6.999c-1.381 0-2.5 1.119-2.5 2.5s1.119 2.5 2.5 2.5 2.5-1.119 2.5-2.5-1.119-2.5-2.5-2.5z"></path>
<path d="M16 11.999c0.45 0.051 1.27 1.804 1.779 4.001h-11.392c0.434-1.034 1.055-2.001 1.612-2.001 0.806 0 1.125 0.185 1.53 0.42 0.447 0.258 1.006 0.58 1.97 0.58 1.138 0 1.942-0.885 2.653-1.666 0.627-0.687 1.218-1.334 1.848-1.334M16 10.999c-2 0-3 3-4.5 3s-1.499-1-3.5-1c-2 0-3.001 4-3.001 4h14.001c0 0-1-6-3-6z"></path>
<path d="M22 6c0-1.104-0.896-2-2-2h-16c-1.104 0-2 0.896-2 2v12c0 1.104 0.896 2 2 2h16c1.104 0 2-0.896 2-2v-12zM20 18h-16v-12h16.003l-0.003 12z"></path>
</symbol>
<symbol id="icon-flash-outline" viewBox="0 0 24 24">
<path d="M14.5 4h0.005M14.5 4l-2.5 6 5 2.898-7.5 7.102 2.5-6-5-2.9 7.5-7.1M14.5 2c-0.562 0.012-1.029 0.219-1.379 0.551l-7.497 7.095c-0.458 0.435-0.685 1.059-0.61 1.686 0.072 0.626 0.437 1.182 0.982 1.498l3.482 2.021-1.826 4.381c-0.362 0.871-0.066 1.879 0.712 2.416 0.344 0.236 0.739 0.354 1.135 0.354 0.498 0 0.993-0.186 1.375-0.548l7.5-7.103c0.458-0.434 0.685-1.058 0.61-1.685-0.073-0.627-0.438-1.183-0.982-1.498l-3.482-2.018 1.789-4.293c0.123-0.26 0.192-0.551 0.192-0.857 0-1.102-0.89-1.996-2.001-2z"></path>
</symbol>
</defs>
</svg>
